<svg
  width="24"
  height="24"
  viewBox="0 0 24 24"
  fill="none"
  xmlns="http://www.w3.org/2000/svg"
>
  <g stroke="#9CA3AF" stroke-width="1.8" stroke-linecap="round" stroke-linejoin="round">
    <circle cx="12" cy="12" r="3" />
    <path d="M19 12C19 11.3 18.9 10.7 18.7 10.1L21 8.5L18.5 4.5L15.8 5.5C15.3 5.1 14.7 4.8 14 4.6L13.5 2H10.5L10 4.6C9.3 4.8 8.7 5.1 8.2 5.5L5.5 4.5L3 8.5L5.3 10.1C5.1 10.7 5 11.3 5 12C5 12.7 5.1 13.3 5.3 13.9L3 15.5L5.5 19.5L8.2 18.5C8.7 18.9 9.3 19.2 10 19.4L10.5 22H13.5L14 19.4C14.7 19.2 15.3 18.9 15.8 18.5L18.5 19.5L21 15.5L18.7 13.9C18.9 13.3 19 12.7 19 12Z" />
  </g>
</svg>